<mxfile host="drawio-plugin" modified="2021-10-13T07:21:10.715Z" agent="5.0 (Windows NT 6.2; Win64; x64) AppleWebKit/537.36 (KHTML, like Gecko) Chrome/89.0.4389.114 Safari/537.36" etag="shaaBYgKelO3n5sKJ3uu" version="14.7.4" type="embed"><diagram id="C5RBs43oDa-KdzZeNtuy" name="Page-1"><mxGraphModel dx="1881" dy="1166" grid="0" gridSize="10" guides="1" tooltips="1" connect="1" arrows="1" fold="1" page="1" pageScale="1" pageWidth="1169" pageHeight="827" background="#ffffff" math="0" shadow="0"><root><mxCell id="WIyWlLk6GJQsqaUBKTNV-0"/><mxCell id="WIyWlLk6GJQsqaUBKTNV-1" parent="WIyWlLk6GJQsqaUBKTNV-0"/><mxCell id="uJwW_t0-LsnPaFoU-Gmf-51" value="Customer" style="swimlane;fontStyle=1;align=center;verticalAlign=top;childLayout=stackLayout;horizontal=1;startSize=26;horizontalStack=0;resizeParent=1;resizeLast=0;collapsible=1;marginBottom=0;shadow=0;strokeWidth=1;fillColor=#B2C9AB;strokeColor=#788AA3;fontColor=#46495D;" parent="WIyWlLk6GJQsqaUBKTNV-1" vertex="1"><mxGeometry x="53.000000000000114" y="-764" width="210" height="162" as="geometry"><mxRectangle x="130" y="380" width="160" height="26" as="alternateBounds"/></mxGeometry></mxCell><mxCell id="uJwW_t0-LsnPaFoU-Gmf-52" value="+ bonuses: int&#10;+orders: list" style="text;align=left;verticalAlign=top;spacingLeft=4;spacingRight=4;overflow=hidden;rotatable=0;points=[[0,0.5],[1,0.5]];portConstraint=eastwest;shadow=0;html=0;fontColor=#46495D;" parent="uJwW_t0-LsnPaFoU-Gmf-51" vertex="1"><mxGeometry y="26" width="210" height="34" as="geometry"/></mxCell><mxCell id="uJwW_t0-LsnPaFoU-Gmf-53" value="" style="line;html=1;strokeWidth=1;align=left;verticalAlign=middle;spacingTop=-1;spacingLeft=3;spacingRight=3;rotatable=0;labelPosition=right;points=[];portConstraint=eastwest;fillColor=#B2C9AB;strokeColor=#788AA3;fontColor=#46495D;" parent="uJwW_t0-LsnPaFoU-Gmf-51" vertex="1"><mxGeometry y="60" width="210" height="8" as="geometry"/></mxCell><mxCell id="uJwW_t0-LsnPaFoU-Gmf-54" value="+ create_order(products:list)&#10;+ cancel_order()&#10;+ edit_order()&#10;+ purchase(order:Order)&#10;- increase_bonus(percent:float)&#10;- decrease_bonuses(percent: float)" style="text;align=left;verticalAlign=top;spacingLeft=4;spacingRight=4;overflow=hidden;rotatable=0;points=[[0,0.5],[1,0.5]];portConstraint=eastwest;fontStyle=0;fontColor=#46495D;" parent="uJwW_t0-LsnPaFoU-Gmf-51" vertex="1"><mxGeometry y="68" width="210" height="94" as="geometry"/></mxCell><mxCell id="uJwW_t0-LsnPaFoU-Gmf-55" value="" style="endArrow=block;endSize=10;endFill=0;shadow=0;strokeWidth=1;edgeStyle=elbowEdgeStyle;elbow=vertical;strokeColor=#788AA3;fontColor=#46495D;" parent="WIyWlLk6GJQsqaUBKTNV-1" source="uJwW_t0-LsnPaFoU-Gmf-51" target="uJwW_t0-LsnPaFoU-Gmf-69" edge="1"><mxGeometry width="160" relative="1" as="geometry"><mxPoint x="-603.9999999999999" y="574" as="sourcePoint"/><mxPoint x="-633.9999999999999" y="414" as="targetPoint"/><Array as="points"><mxPoint x="-10" y="-454"/></Array></mxGeometry></mxCell><mxCell id="uJwW_t0-LsnPaFoU-Gmf-56" value="Seller" style="swimlane;fontStyle=1;align=center;verticalAlign=top;childLayout=stackLayout;horizontal=1;startSize=26;horizontalStack=0;resizeParent=1;resizeLast=0;collapsible=1;marginBottom=0;shadow=0;strokeWidth=1;fillColor=#B2C9AB;strokeColor=#788AA3;fontColor=#46495D;" parent="WIyWlLk6GJQsqaUBKTNV-1" vertex="1"><mxGeometry x="-568" y="-425" width="210" height="201" as="geometry"><mxRectangle x="340" y="380" width="170" height="26" as="alternateBounds"/></mxGeometry></mxCell><mxCell id="uJwW_t0-LsnPaFoU-Gmf-57" value="+ salary: float&#10;+ sold_price: float&#10;- _bonuses: " style="text;align=left;verticalAlign=top;spacingLeft=4;spacingRight=4;overflow=hidden;rotatable=0;points=[[0,0.5],[1,0.5]];portConstraint=eastwest;fontColor=#46495D;" parent="uJwW_t0-LsnPaFoU-Gmf-56" vertex="1"><mxGeometry y="26" width="210" height="54" as="geometry"/></mxCell><mxCell id="uJwW_t0-LsnPaFoU-Gmf-58" value="" style="line;html=1;strokeWidth=1;align=left;verticalAlign=middle;spacingTop=-1;spacingLeft=3;spacingRight=3;rotatable=0;labelPosition=right;points=[];portConstraint=eastwest;fillColor=#B2C9AB;strokeColor=#788AA3;fontColor=#46495D;" parent="uJwW_t0-LsnPaFoU-Gmf-56" vertex="1"><mxGeometry y="80" width="210" height="8" as="geometry"/></mxCell><mxCell id="uJwW_t0-LsnPaFoU-Gmf-59" value="&amp;nbsp;+&amp;lt;&amp;lt;property&amp;gt;&amp;gt;bonuses()&lt;br&gt;&amp;nbsp;+ increase_bonus(percent:float)&lt;br&gt;&amp;nbsp;+ decrease_bonuses(percent: float)&lt;br&gt;+ add_to_menu(Product)&lt;br&gt;+ delete_from_menu(Product)&lt;br&gt;+ edit_product(Product)&lt;br&gt;+ send_to_kitchen(Product)&lt;br&gt;+ create_delivery(Order)" style="text;html=1;align=left;verticalAlign=middle;resizable=0;points=[];autosize=1;strokeColor=none;fillColor=none;fontColor=#46495D;" parent="uJwW_t0-LsnPaFoU-Gmf-56" vertex="1"><mxGeometry y="88" width="210" height="113" as="geometry"/></mxCell><mxCell id="uJwW_t0-LsnPaFoU-Gmf-60" value="" style="endArrow=block;endSize=10;endFill=0;shadow=0;strokeWidth=1;edgeStyle=elbowEdgeStyle;elbow=vertical;strokeColor=#788AA3;fontColor=#46495D;" parent="WIyWlLk6GJQsqaUBKTNV-1" source="uJwW_t0-LsnPaFoU-Gmf-56" target="uJwW_t0-LsnPaFoU-Gmf-69" edge="1"><mxGeometry width="160" relative="1" as="geometry"><mxPoint x="-613.9999999999999" y="412" as="sourcePoint"/><mxPoint x="-672.9999999999999" y="474" as="targetPoint"/><Array as="points"><mxPoint x="-297" y="-339"/><mxPoint x="-322" y="-355"/><mxPoint x="-742" y="373"/><mxPoint x="-633.9999999999999" y="424"/></Array></mxGeometry></mxCell><mxCell id="uJwW_t0-LsnPaFoU-Gmf-61" value="Order" style="swimlane;fontStyle=1;align=center;verticalAlign=top;childLayout=stackLayout;horizontal=1;startSize=26;horizontalStack=0;resizeParent=1;resizeParentMax=0;resizeLast=0;collapsible=1;marginBottom=0;fillColor=#B2C9AB;strokeColor=#788AA3;fontColor=#46495D;" parent="WIyWlLk6GJQsqaUBKTNV-1" vertex="1"><mxGeometry x="-281" y="-803" width="176" height="241" as="geometry"><mxRectangle x="580" y="40" width="70" height="26" as="alternateBounds"/></mxGeometry></mxCell><mxCell id="uJwW_t0-LsnPaFoU-Gmf-62" value="+ products: list&#10;- _price: float&#10;+ adress: str&#10;+ customer: Customer=None&#10;+ delivery: bool&#10;- _delievery_percent: float&#10;+ status: enum" style="text;strokeColor=none;fillColor=none;align=left;verticalAlign=top;spacingLeft=4;spacingRight=4;overflow=hidden;rotatable=0;points=[[0,0.5],[1,0.5]];portConstraint=eastwest;fontColor=#46495D;" parent="uJwW_t0-LsnPaFoU-Gmf-61" vertex="1"><mxGeometry y="26" width="176" height="124" as="geometry"/></mxCell><mxCell id="uJwW_t0-LsnPaFoU-Gmf-63" value="" style="line;strokeWidth=1;fillColor=none;align=left;verticalAlign=middle;spacingTop=-1;spacingLeft=3;spacingRight=3;rotatable=0;labelPosition=right;points=[];portConstraint=eastwest;strokeColor=#788AA3;fontColor=#46495D;" parent="uJwW_t0-LsnPaFoU-Gmf-61" vertex="1"><mxGeometry y="150" width="176" height="8" as="geometry"/></mxCell><mxCell id="uJwW_t0-LsnPaFoU-Gmf-64" value="+&lt;&lt;property&gt;&gt;price(): float&#10;+ add_product(Product)&#10;_ remove_product(Product)&#10;+ set_status()" style="text;strokeColor=none;fillColor=none;align=left;verticalAlign=top;spacingLeft=4;spacingRight=4;overflow=hidden;rotatable=0;points=[[0,0.5],[1,0.5]];portConstraint=eastwest;fontColor=#46495D;" parent="uJwW_t0-LsnPaFoU-Gmf-61" vertex="1"><mxGeometry y="158" width="176" height="83" as="geometry"/></mxCell><mxCell id="uJwW_t0-LsnPaFoU-Gmf-65" value="Product" style="swimlane;fontStyle=1;align=center;verticalAlign=top;childLayout=stackLayout;horizontal=1;startSize=26;horizontalStack=0;resizeParent=1;resizeParentMax=0;resizeLast=0;collapsible=1;marginBottom=0;fillColor=#B2C9AB;strokeColor=#788AA3;fontColor=#46495D;" parent="WIyWlLk6GJQsqaUBKTNV-1" vertex="1"><mxGeometry x="-813.9999999999999" y="-365.5" width="180" height="201" as="geometry"/></mxCell><mxCell id="uJwW_t0-LsnPaFoU-Gmf-66" value="+ name: str&#10;- _base_price: float&#10;+ sale: float=0.0&#10;-  _need_cook: bool&#10;+ _cooked: bool = False&#10;+order_id: int = None" style="text;strokeColor=none;fillColor=none;align=left;verticalAlign=top;spacingLeft=4;spacingRight=4;overflow=hidden;rotatable=0;points=[[0,0.5],[1,0.5]];portConstraint=eastwest;fontColor=#46495D;" parent="uJwW_t0-LsnPaFoU-Gmf-65" vertex="1"><mxGeometry y="26" width="180" height="99" as="geometry"/></mxCell><mxCell id="uJwW_t0-LsnPaFoU-Gmf-67" value="" style="line;strokeWidth=1;fillColor=none;align=left;verticalAlign=middle;spacingTop=-1;spacingLeft=3;spacingRight=3;rotatable=0;labelPosition=right;points=[];portConstraint=eastwest;strokeColor=#788AA3;fontColor=#46495D;" parent="uJwW_t0-LsnPaFoU-Gmf-65" vertex="1"><mxGeometry y="125" width="180" height="8" as="geometry"/></mxCell><mxCell id="uJwW_t0-LsnPaFoU-Gmf-68" value="+&lt;&lt;property&gt;&gt;price(): float&#10;+ chenge_cook_status(bool)&#10;+ get_cook_status()&#10;+ set_order_id()" style="text;strokeColor=none;fillColor=none;align=left;verticalAlign=top;spacingLeft=4;spacingRight=4;overflow=hidden;rotatable=0;points=[[0,0.5],[1,0.5]];portConstraint=eastwest;fontColor=#46495D;" parent="uJwW_t0-LsnPaFoU-Gmf-65" vertex="1"><mxGeometry y="133" width="180" height="68" as="geometry"/></mxCell><mxCell id="uJwW_t0-LsnPaFoU-Gmf-69" value="Person" style="swimlane;fontStyle=3;align=center;verticalAlign=top;childLayout=stackLayout;horizontal=1;startSize=26;horizontalStack=0;resizeParent=1;resizeParentMax=0;resizeLast=0;collapsible=1;marginBottom=0;fillColor=#B2C9AB;strokeColor=#788AA3;fontColor=#46495D;" parent="WIyWlLk6GJQsqaUBKTNV-1" vertex="1"><mxGeometry x="-226" y="-365.5" width="100" height="90" as="geometry"/></mxCell><mxCell id="uJwW_t0-LsnPaFoU-Gmf-70" value="+ full_name: str&#10;+ phone: str" style="text;strokeColor=none;fillColor=none;align=left;verticalAlign=top;spacingLeft=4;spacingRight=4;overflow=hidden;rotatable=0;points=[[0,0.5],[1,0.5]];portConstraint=eastwest;fontColor=#46495D;" parent="uJwW_t0-LsnPaFoU-Gmf-69" vertex="1"><mxGeometry y="26" width="100" height="34" as="geometry"/></mxCell><mxCell id="uJwW_t0-LsnPaFoU-Gmf-71" value="" style="line;strokeWidth=1;fillColor=none;align=left;verticalAlign=middle;spacingTop=-1;spacingLeft=3;spacingRight=3;rotatable=0;labelPosition=right;points=[];portConstraint=eastwest;strokeColor=#788AA3;fontColor=#46495D;" parent="uJwW_t0-LsnPaFoU-Gmf-69" vertex="1"><mxGeometry y="60" width="100" height="8" as="geometry"/></mxCell><mxCell id="uJwW_t0-LsnPaFoU-Gmf-72" value="+ info() : str" style="text;strokeColor=none;fillColor=none;align=left;verticalAlign=top;spacingLeft=4;spacingRight=4;overflow=hidden;rotatable=0;points=[[0,0.5],[1,0.5]];portConstraint=eastwest;fontColor=#46495D;" parent="uJwW_t0-LsnPaFoU-Gmf-69" vertex="1"><mxGeometry y="68" width="100" height="22" as="geometry"/></mxCell><mxCell id="uJwW_t0-LsnPaFoU-Gmf-85" value="" style="endArrow=none;html=1;edgeStyle=orthogonalEdgeStyle;fontColor=#46495D;strokeColor=#788AA3;fillColor=#B2C9AB;" parent="WIyWlLk6GJQsqaUBKTNV-1" source="uJwW_t0-LsnPaFoU-Gmf-51" target="uJwW_t0-LsnPaFoU-Gmf-61" edge="1"><mxGeometry relative="1" as="geometry"><mxPoint x="-23.999999999999943" y="614" as="sourcePoint"/><mxPoint x="-203.9999999999999" y="614" as="targetPoint"/><Array as="points"><mxPoint x="-12" y="-709"/><mxPoint x="-12" y="-709"/></Array></mxGeometry></mxCell><mxCell id="uJwW_t0-LsnPaFoU-Gmf-86" value="0..*" style="edgeLabel;resizable=0;html=1;align=right;verticalAlign=bottom;" parent="uJwW_t0-LsnPaFoU-Gmf-85" connectable="0" vertex="1"><mxGeometry x="1" relative="1" as="geometry"><mxPoint x="23" y="-5" as="offset"/></mxGeometry></mxCell><mxCell id="harvEBDbIxdFstAonPvA-39" value="Account" style="swimlane;fontStyle=1;align=center;verticalAlign=top;childLayout=stackLayout;horizontal=1;startSize=26;horizontalStack=0;resizeParent=1;resizeLast=0;collapsible=1;marginBottom=0;shadow=0;strokeWidth=1;fillColor=#B2C9AB;strokeColor=#788AA3;fontColor=#46495D;" parent="WIyWlLk6GJQsqaUBKTNV-1" vertex="1"><mxGeometry x="194" y="-529" width="143" height="133" as="geometry"><mxRectangle x="130" y="380" width="160" height="26" as="alternateBounds"/></mxGeometry></mxCell><mxCell id="harvEBDbIxdFstAonPvA-40" value="+ email: str&#10;+ password: str" style="text;align=left;verticalAlign=top;spacingLeft=4;spacingRight=4;overflow=hidden;rotatable=0;points=[[0,0.5],[1,0.5]];portConstraint=eastwest;shadow=0;html=0;fontColor=#46495D;" parent="harvEBDbIxdFstAonPvA-39" vertex="1"><mxGeometry y="26" width="143" height="40" as="geometry"/></mxCell><mxCell id="harvEBDbIxdFstAonPvA-41" value="" style="line;html=1;strokeWidth=1;align=left;verticalAlign=middle;spacingTop=-1;spacingLeft=3;spacingRight=3;rotatable=0;labelPosition=right;points=[];portConstraint=eastwest;fillColor=#B2C9AB;strokeColor=#788AA3;fontColor=#46495D;" parent="harvEBDbIxdFstAonPvA-39" vertex="1"><mxGeometry y="66" width="143" height="8" as="geometry"/></mxCell><mxCell id="harvEBDbIxdFstAonPvA-42" value="+ change_email(str)&#10;+ change_password(str)&#10;+ restore_password()" style="text;align=left;verticalAlign=top;spacingLeft=4;spacingRight=4;overflow=hidden;rotatable=0;points=[[0,0.5],[1,0.5]];portConstraint=eastwest;fontStyle=0;fontColor=#46495D;" parent="harvEBDbIxdFstAonPvA-39" vertex="1"><mxGeometry y="74" width="143" height="59" as="geometry"/></mxCell><mxCell id="harvEBDbIxdFstAonPvA-46" value="" style="endArrow=diamondThin;endFill=1;endSize=24;html=1;sourcePerimeterSpacing=0;targetPerimeterSpacing=0;" parent="WIyWlLk6GJQsqaUBKTNV-1" source="harvEBDbIxdFstAonPvA-39" target="uJwW_t0-LsnPaFoU-Gmf-51" edge="1"><mxGeometry width="160" relative="1" as="geometry"><mxPoint x="-784" y="605" as="sourcePoint"/><mxPoint x="-624" y="605" as="targetPoint"/></mxGeometry></mxCell><mxCell id="4" value="Menu" style="swimlane;fontStyle=1;align=center;verticalAlign=top;childLayout=stackLayout;horizontal=1;startSize=26;horizontalStack=0;resizeParent=1;resizeParentMax=0;resizeLast=0;collapsible=1;marginBottom=0;fillColor=#B2C9AB;strokeColor=#788AA3;fontColor=#46495D;" parent="WIyWlLk6GJQsqaUBKTNV-1" vertex="1"><mxGeometry x="-552.9999999999999" y="-183" width="180" height="120" as="geometry"/></mxCell><mxCell id="5" value="+ products: list" style="text;strokeColor=none;fillColor=none;align=left;verticalAlign=top;spacingLeft=4;spacingRight=4;overflow=hidden;rotatable=0;points=[[0,0.5],[1,0.5]];portConstraint=eastwest;fontColor=#46495D;" parent="4" vertex="1"><mxGeometry y="26" width="180" height="30" as="geometry"/></mxCell><mxCell id="6" value="" style="line;strokeWidth=1;fillColor=none;align=left;verticalAlign=middle;spacingTop=-1;spacingLeft=3;spacingRight=3;rotatable=0;labelPosition=right;points=[];portConstraint=eastwest;strokeColor=#788AA3;fontColor=#46495D;" parent="4" vertex="1"><mxGeometry y="56" width="180" height="8" as="geometry"/></mxCell><mxCell id="7" value="+ show_products()&#10;+ add_to_order()&#10;+ delete_from_order()" style="text;strokeColor=none;fillColor=none;align=left;verticalAlign=top;spacingLeft=4;spacingRight=4;overflow=hidden;rotatable=0;points=[[0,0.5],[1,0.5]];portConstraint=eastwest;fontColor=#46495D;" parent="4" vertex="1"><mxGeometry y="64" width="180" height="56" as="geometry"/></mxCell><mxCell id="8" value="" style="endArrow=none;html=1;edgeStyle=orthogonalEdgeStyle;fontColor=#46495D;strokeColor=#788AA3;fillColor=#B2C9AB;" parent="WIyWlLk6GJQsqaUBKTNV-1" source="uJwW_t0-LsnPaFoU-Gmf-51" target="4" edge="1"><mxGeometry relative="1" as="geometry"><mxPoint x="-374" y="595" as="sourcePoint"/><mxPoint x="-240" y="562.5" as="targetPoint"/><Array as="points"><mxPoint x="-356" y="-165"/><mxPoint x="-356" y="-165"/></Array></mxGeometry></mxCell><mxCell id="9" value="1" style="edgeLabel;resizable=0;html=1;align=right;verticalAlign=bottom;" parent="8" connectable="0" vertex="1"><mxGeometry x="1" relative="1" as="geometry"><mxPoint x="15" y="21" as="offset"/></mxGeometry></mxCell><mxCell id="11" value="" style="endArrow=none;html=1;edgeStyle=orthogonalEdgeStyle;fontColor=#46495D;strokeColor=#788AA3;fillColor=#B2C9AB;" parent="WIyWlLk6GJQsqaUBKTNV-1" source="uJwW_t0-LsnPaFoU-Gmf-56" target="uJwW_t0-LsnPaFoU-Gmf-65" edge="1"><mxGeometry relative="1" as="geometry"><mxPoint x="-374" y="595" as="sourcePoint"/><mxPoint x="-240" y="562.5" as="targetPoint"/><Array as="points"><mxPoint x="-598" y="-309"/><mxPoint x="-598" y="-309"/></Array></mxGeometry></mxCell><mxCell id="12" value="0..*" style="edgeLabel;resizable=0;html=1;align=right;verticalAlign=bottom;" parent="11" connectable="0" vertex="1"><mxGeometry x="1" relative="1" as="geometry"><mxPoint x="20" y="-5" as="offset"/></mxGeometry></mxCell><mxCell id="13" value="" style="endArrow=none;html=1;edgeStyle=orthogonalEdgeStyle;fontColor=#46495D;strokeColor=#788AA3;fillColor=#B2C9AB;startArrow=diamondThin;startFill=0;startSize=22;" parent="WIyWlLk6GJQsqaUBKTNV-1" source="4" target="uJwW_t0-LsnPaFoU-Gmf-65" edge="1"><mxGeometry relative="1" as="geometry"><mxPoint x="-634" y="281" as="sourcePoint"/><mxPoint x="-569" y="134.42857142857144" as="targetPoint"/><Array as="points"><mxPoint x="-730" y="-123"/></Array></mxGeometry></mxCell><mxCell id="14" value="0..*" style="edgeLabel;resizable=0;html=1;align=right;verticalAlign=bottom;" parent="13" connectable="0" vertex="1"><mxGeometry x="1" relative="1" as="geometry"><mxPoint x="-7" y="22" as="offset"/></mxGeometry></mxCell><mxCell id="22" value="1" style="edgeLabel;html=1;align=center;verticalAlign=middle;resizable=0;points=[];" parent="13" vertex="1" connectable="0"><mxGeometry x="-0.8763" relative="1" as="geometry"><mxPoint x="-18" y="-10" as="offset"/></mxGeometry></mxCell><mxCell id="16" value="Kitchen" style="swimlane;fontStyle=1;align=center;verticalAlign=top;childLayout=stackLayout;horizontal=1;startSize=26;horizontalStack=0;resizeParent=1;resizeLast=0;collapsible=1;marginBottom=0;shadow=0;strokeWidth=1;fillColor=#B2C9AB;strokeColor=#788AA3;fontColor=#46495D;" parent="WIyWlLk6GJQsqaUBKTNV-1" vertex="1"><mxGeometry x="-1005" y="-616" width="210" height="116" as="geometry"><mxRectangle x="340" y="380" width="170" height="26" as="alternateBounds"/></mxGeometry></mxCell><mxCell id="17" value="+ dishes&#10;+ cooked dishes&#10;personal:list" style="text;align=left;verticalAlign=top;spacingLeft=4;spacingRight=4;overflow=hidden;rotatable=0;points=[[0,0.5],[1,0.5]];portConstraint=eastwest;fontColor=#46495D;" parent="16" vertex="1"><mxGeometry y="26" width="210" height="51" as="geometry"/></mxCell><mxCell id="18" value="" style="line;html=1;strokeWidth=1;align=left;verticalAlign=middle;spacingTop=-1;spacingLeft=3;spacingRight=3;rotatable=0;labelPosition=right;points=[];portConstraint=eastwest;fillColor=#B2C9AB;strokeColor=#788AA3;fontColor=#46495D;" parent="16" vertex="1"><mxGeometry y="77" width="210" height="8" as="geometry"/></mxCell><mxCell id="19" value="+ send_to_cook(Product)&lt;br&gt;+ get_cooked(Product)" style="text;html=1;align=left;verticalAlign=middle;resizable=0;points=[];autosize=1;strokeColor=none;fillColor=none;fontColor=#46495D;" parent="16" vertex="1"><mxGeometry y="85" width="210" height="31" as="geometry"/></mxCell><mxCell id="20" value="" style="endArrow=none;html=1;edgeStyle=orthogonalEdgeStyle;fontColor=#46495D;strokeColor=#788AA3;fillColor=#B2C9AB;" parent="WIyWlLk6GJQsqaUBKTNV-1" source="16" target="uJwW_t0-LsnPaFoU-Gmf-65" edge="1"><mxGeometry relative="1" as="geometry"><mxPoint x="-634" y="281" as="sourcePoint"/><mxPoint x="-569" y="134.57142857142867" as="targetPoint"/><Array as="points"><mxPoint x="-900" y="-419"/><mxPoint x="-779" y="-419"/></Array></mxGeometry></mxCell><mxCell id="21" value="0..*" style="edgeLabel;resizable=0;html=1;align=right;verticalAlign=bottom;" parent="20" connectable="0" vertex="1"><mxGeometry x="1" relative="1" as="geometry"><mxPoint x="-7" y="-3" as="offset"/></mxGeometry></mxCell><mxCell id="23" value="Cook" style="swimlane;fontStyle=1;align=center;verticalAlign=top;childLayout=stackLayout;horizontal=1;startSize=26;horizontalStack=0;resizeParent=1;resizeParentMax=0;resizeLast=0;collapsible=1;marginBottom=0;fillColor=#B2C9AB;strokeColor=#788AA3;fontColor=#46495D;" parent="WIyWlLk6GJQsqaUBKTNV-1" vertex="1"><mxGeometry x="-1109" y="-307.5" width="184" height="86" as="geometry"/></mxCell><mxCell id="24" value="+ is_free:True" style="text;strokeColor=none;fillColor=none;align=left;verticalAlign=top;spacingLeft=4;spacingRight=4;overflow=hidden;rotatable=0;points=[[0,0.5],[1,0.5]];portConstraint=eastwest;fontColor=#46495D;" parent="23" vertex="1"><mxGeometry y="26" width="184" height="30" as="geometry"/></mxCell><mxCell id="25" value="" style="line;strokeWidth=1;fillColor=none;align=left;verticalAlign=middle;spacingTop=-1;spacingLeft=3;spacingRight=3;rotatable=0;labelPosition=right;points=[];portConstraint=eastwest;strokeColor=#788AA3;fontColor=#46495D;" parent="23" vertex="1"><mxGeometry y="56" width="184" height="8" as="geometry"/></mxCell><mxCell id="26" value="+ cook_dish(Product) -&gt; Product" style="text;strokeColor=none;fillColor=none;align=left;verticalAlign=top;spacingLeft=4;spacingRight=4;overflow=hidden;rotatable=0;points=[[0,0.5],[1,0.5]];portConstraint=eastwest;fontColor=#46495D;" parent="23" vertex="1"><mxGeometry y="64" width="184" height="22" as="geometry"/></mxCell><mxCell id="27" value="" style="endArrow=block;endSize=10;endFill=0;shadow=0;strokeWidth=1;edgeStyle=elbowEdgeStyle;elbow=vertical;strokeColor=#788AA3;fontColor=#46495D;" parent="WIyWlLk6GJQsqaUBKTNV-1" source="23" target="uJwW_t0-LsnPaFoU-Gmf-69" edge="1"><mxGeometry width="160" relative="1" as="geometry"><mxPoint x="-739" y="368" as="sourcePoint"/><mxPoint x="-739" y="434" as="targetPoint"/><Array as="points"><mxPoint x="-1084" y="-453"/><mxPoint x="-1019" y="-453"/><mxPoint x="-569" y="-445"/><mxPoint x="-732" y="383"/><mxPoint x="-623.9999999999999" y="434"/></Array></mxGeometry></mxCell><mxCell id="28" value="" style="endArrow=none;html=1;edgeStyle=orthogonalEdgeStyle;fontColor=#46495D;strokeColor=#788AA3;fillColor=#B2C9AB;" parent="WIyWlLk6GJQsqaUBKTNV-1" source="16" target="23" edge="1"><mxGeometry relative="1" as="geometry"><mxPoint x="-634" y="-31.05882352941194" as="sourcePoint"/><mxPoint x="-478.9411764705883" y="75" as="targetPoint"/><Array as="points"><mxPoint x="-900" y="-419"/><mxPoint x="-1014" y="-419"/></Array></mxGeometry></mxCell><mxCell id="29" value="1..*" style="edgeLabel;resizable=0;html=1;align=right;verticalAlign=bottom;" parent="28" connectable="0" vertex="1"><mxGeometry x="1" relative="1" as="geometry"><mxPoint x="-7" y="-3" as="offset"/></mxGeometry></mxCell><mxCell id="Heu1cjWyt6-brvRw2etn-79" value="1" style="edgeLabel;html=1;align=center;verticalAlign=middle;resizable=0;points=[];" parent="28" vertex="1" connectable="0"><mxGeometry x="-0.9744" relative="1" as="geometry"><mxPoint x="-7" y="6" as="offset"/></mxGeometry></mxCell><mxCell id="31" value="" style="endArrow=none;html=1;edgeStyle=orthogonalEdgeStyle;fontColor=#46495D;strokeColor=#788AA3;fillColor=#B2C9AB;" parent="WIyWlLk6GJQsqaUBKTNV-1" source="23" target="uJwW_t0-LsnPaFoU-Gmf-65" edge="1"><mxGeometry relative="1" as="geometry"><mxPoint x="-844" y="-31.05882352941194" as="sourcePoint"/><mxPoint x="-950" y="75" as="targetPoint"/><Array as="points"/></mxGeometry></mxCell><mxCell id="32" value="1..*" style="edgeLabel;resizable=0;html=1;align=right;verticalAlign=bottom;" parent="31" connectable="0" vertex="1"><mxGeometry x="1" relative="1" as="geometry"><mxPoint x="-7" y="-3" as="offset"/></mxGeometry></mxCell><mxCell id="33" value="Delivery" style="swimlane;fontStyle=1;align=center;verticalAlign=top;childLayout=stackLayout;horizontal=1;startSize=26;horizontalStack=0;resizeParent=1;resizeLast=0;collapsible=1;marginBottom=0;shadow=0;strokeWidth=1;fillColor=#B2C9AB;strokeColor=#788AA3;fontColor=#46495D;" parent="WIyWlLk6GJQsqaUBKTNV-1" vertex="1"><mxGeometry x="-653" y="-803" width="210" height="145" as="geometry"><mxRectangle x="340" y="380" width="170" height="26" as="alternateBounds"/></mxGeometry></mxCell><mxCell id="34" value="+ orders_list: Order&#10;+ delivery_loads: list" style="text;align=left;verticalAlign=top;spacingLeft=4;spacingRight=4;overflow=hidden;rotatable=0;points=[[0,0.5],[1,0.5]];portConstraint=eastwest;fontColor=#46495D;" parent="33" vertex="1"><mxGeometry y="26" width="210" height="51" as="geometry"/></mxCell><mxCell id="35" value="" style="line;html=1;strokeWidth=1;align=left;verticalAlign=middle;spacingTop=-1;spacingLeft=3;spacingRight=3;rotatable=0;labelPosition=right;points=[];portConstraint=eastwest;fillColor=#B2C9AB;strokeColor=#788AA3;fontColor=#46495D;" parent="33" vertex="1"><mxGeometry y="77" width="210" height="8" as="geometry"/></mxCell><mxCell id="36" value="+ add_deliver(Order)&lt;br style=&quot;padding: 0px ; margin: 0px&quot;&gt;+ remove_deliver(Order)&lt;br style=&quot;padding: 0px ; margin: 0px&quot;&gt;+ deliver(Order)" style="text;html=1;align=left;verticalAlign=middle;resizable=0;points=[];autosize=1;strokeColor=none;fillColor=none;fontColor=#46495D;" parent="33" vertex="1"><mxGeometry y="85" width="210" height="46" as="geometry"/></mxCell><mxCell id="50" value="Restaurant" style="swimlane;fontStyle=1;align=center;verticalAlign=top;childLayout=stackLayout;horizontal=1;startSize=26;horizontalStack=0;resizeParent=1;resizeLast=0;collapsible=1;marginBottom=0;shadow=0;strokeWidth=1;fillColor=#B2C9AB;strokeColor=#788AA3;fontColor=#46495D;" parent="WIyWlLk6GJQsqaUBKTNV-1" vertex="1"><mxGeometry x="-1005" y="-803" width="210" height="116" as="geometry"><mxRectangle x="340" y="380" width="170" height="26" as="alternateBounds"/></mxGeometry></mxCell><mxCell id="51" value="+ work_times: dict&#10;+ is_working: bool" style="text;align=left;verticalAlign=top;spacingLeft=4;spacingRight=4;overflow=hidden;rotatable=0;points=[[0,0.5],[1,0.5]];portConstraint=eastwest;fontColor=#46495D;" parent="50" vertex="1"><mxGeometry y="26" width="210" height="51" as="geometry"/></mxCell><mxCell id="52" value="" style="line;html=1;strokeWidth=1;align=left;verticalAlign=middle;spacingTop=-1;spacingLeft=3;spacingRight=3;rotatable=0;labelPosition=right;points=[];portConstraint=eastwest;fillColor=#B2C9AB;strokeColor=#788AA3;fontColor=#46495D;" parent="50" vertex="1"><mxGeometry y="77" width="210" height="8" as="geometry"/></mxCell><mxCell id="53" value="+ open()&lt;br&gt;+ close()" style="text;html=1;align=left;verticalAlign=middle;resizable=0;points=[];autosize=1;strokeColor=none;fillColor=none;fontColor=#46495D;" parent="50" vertex="1"><mxGeometry y="85" width="210" height="31" as="geometry"/></mxCell><mxCell id="54" value="Hall" style="swimlane;fontStyle=1;align=center;verticalAlign=top;childLayout=stackLayout;horizontal=1;startSize=26;horizontalStack=0;resizeParent=1;resizeLast=0;collapsible=1;marginBottom=0;shadow=0;strokeWidth=1;fillColor=#B2C9AB;strokeColor=#788AA3;fontColor=#46495D;" parent="WIyWlLk6GJQsqaUBKTNV-1" vertex="1"><mxGeometry x="-653" y="-616" width="210" height="116" as="geometry"><mxRectangle x="340" y="380" width="170" height="26" as="alternateBounds"/></mxGeometry></mxCell><mxCell id="55" value="+ max_places: int&#10;+ visitors: Customer&#10;+ seller: Seller" style="text;align=left;verticalAlign=top;spacingLeft=4;spacingRight=4;overflow=hidden;rotatable=0;points=[[0,0.5],[1,0.5]];portConstraint=eastwest;fontColor=#46495D;" parent="54" vertex="1"><mxGeometry y="26" width="210" height="51" as="geometry"/></mxCell><mxCell id="56" value="" style="line;html=1;strokeWidth=1;align=left;verticalAlign=middle;spacingTop=-1;spacingLeft=3;spacingRight=3;rotatable=0;labelPosition=right;points=[];portConstraint=eastwest;fillColor=#B2C9AB;strokeColor=#788AA3;fontColor=#46495D;" parent="54" vertex="1"><mxGeometry y="77" width="210" height="8" as="geometry"/></mxCell><mxCell id="57" value="+ begin_service()&lt;br&gt;+ stop_service()" style="text;html=1;align=left;verticalAlign=middle;resizable=0;points=[];autosize=1;strokeColor=none;fillColor=none;fontColor=#46495D;" parent="54" vertex="1"><mxGeometry y="85" width="210" height="31" as="geometry"/></mxCell><mxCell id="58" value="" style="endArrow=diamondThin;endFill=1;endSize=24;html=1;sourcePerimeterSpacing=0;targetPerimeterSpacing=0;" parent="WIyWlLk6GJQsqaUBKTNV-1" source="33" target="50" edge="1"><mxGeometry width="160" relative="1" as="geometry"><mxPoint x="-668" y="-404.995365853659" as="sourcePoint"/><mxPoint x="-713" y="-786" as="targetPoint"/></mxGeometry></mxCell><mxCell id="59" value="" style="endArrow=diamondThin;endFill=1;endSize=24;html=1;sourcePerimeterSpacing=0;targetPerimeterSpacing=0;" parent="WIyWlLk6GJQsqaUBKTNV-1" source="54" target="50" edge="1"><mxGeometry width="160" relative="1" as="geometry"><mxPoint x="-439" y="-729.8739946380697" as="sourcePoint"/><mxPoint x="-716" y="-673" as="targetPoint"/></mxGeometry></mxCell><mxCell id="67" value="1..*" style="edgeLabel;html=1;align=center;verticalAlign=middle;resizable=0;points=[];" parent="59" vertex="1" connectable="0"><mxGeometry x="0.8184" y="2" relative="1" as="geometry"><mxPoint x="20" y="-1" as="offset"/></mxGeometry></mxCell><mxCell id="60" value="" style="endArrow=diamondThin;endFill=1;endSize=24;html=1;sourcePerimeterSpacing=0;targetPerimeterSpacing=0;" parent="WIyWlLk6GJQsqaUBKTNV-1" source="16" target="50" edge="1"><mxGeometry width="160" relative="1" as="geometry"><mxPoint x="-791.0014285714286" y="-743.9999999999999" as="sourcePoint"/><mxPoint x="-750" y="-623" as="targetPoint"/></mxGeometry></mxCell><mxCell id="66" value="1" style="edgeLabel;html=1;align=center;verticalAlign=middle;resizable=0;points=[];" parent="60" vertex="1" connectable="0"><mxGeometry x="0.5889" y="-2" relative="1" as="geometry"><mxPoint x="-14" y="1" as="offset"/></mxGeometry></mxCell><mxCell id="65" value="" style="endArrow=diamondThin;endFill=0;endSize=24;html=1;" parent="WIyWlLk6GJQsqaUBKTNV-1" source="uJwW_t0-LsnPaFoU-Gmf-56" target="54" edge="1"><mxGeometry width="160" relative="1" as="geometry"><mxPoint x="-431" y="-684.3117977528091" as="sourcePoint"/><mxPoint x="-270" y="-593.6362359550562" as="targetPoint"/></mxGeometry></mxCell><mxCell id="68" value="" style="endArrow=none;html=1;edgeStyle=orthogonalEdgeStyle;fontColor=#46495D;strokeColor=#788AA3;fillColor=#B2C9AB;" parent="WIyWlLk6GJQsqaUBKTNV-1" source="uJwW_t0-LsnPaFoU-Gmf-56" target="16" edge="1"><mxGeometry relative="1" as="geometry"><mxPoint x="-558" y="-306" as="sourcePoint"/><mxPoint x="-665" y="-475" as="targetPoint"/><Array as="points"><mxPoint x="-723" y="-385"/><mxPoint x="-723" y="-600"/></Array></mxGeometry></mxCell><mxCell id="69" value="1" style="edgeLabel;resizable=0;html=1;align=right;verticalAlign=bottom;" parent="68" connectable="0" vertex="1"><mxGeometry x="1" relative="1" as="geometry"><mxPoint x="20" y="-5" as="offset"/></mxGeometry></mxCell><mxCell id="74" value="" style="endArrow=none;html=1;edgeStyle=orthogonalEdgeStyle;fontColor=#46495D;strokeColor=#788AA3;fillColor=#B2C9AB;" parent="WIyWlLk6GJQsqaUBKTNV-1" source="uJwW_t0-LsnPaFoU-Gmf-56" target="33" edge="1"><mxGeometry relative="1" as="geometry"><mxPoint x="-520.9411764705883" y="-391" as="sourcePoint"/><mxPoint x="-785" y="-547.9999999999999" as="targetPoint"/><Array as="points"><mxPoint x="-397" y="-781"/></Array></mxGeometry></mxCell><mxCell id="75" value="1" style="edgeLabel;resizable=0;html=1;align=right;verticalAlign=bottom;" parent="74" connectable="0" vertex="1"><mxGeometry x="1" relative="1" as="geometry"><mxPoint x="20" y="-5" as="offset"/></mxGeometry></mxCell><mxCell id="Heu1cjWyt6-brvRw2etn-82" value="" style="endArrow=diamondThin;endFill=0;endSize=24;html=1;" parent="WIyWlLk6GJQsqaUBKTNV-1" source="uJwW_t0-LsnPaFoU-Gmf-61" target="33" edge="1"><mxGeometry width="160" relative="1" as="geometry"><mxPoint x="-489.5845824411135" y="-415" as="sourcePoint"/><mxPoint x="-516.8865096359743" y="-490" as="targetPoint"/></mxGeometry></mxCell><mxCell id="Heu1cjWyt6-brvRw2etn-83" value="" style="endArrow=diamondThin;endFill=0;endSize=24;html=1;" parent="WIyWlLk6GJQsqaUBKTNV-1" source="uJwW_t0-LsnPaFoU-Gmf-51" target="uJwW_t0-LsnPaFoU-Gmf-61" edge="1"><mxGeometry width="160" relative="1" as="geometry"><mxPoint x="-152" y="-489.0985915492958" as="sourcePoint"/><mxPoint x="-314" y="-511.0028169014085" as="targetPoint"/></mxGeometry></mxCell></root></mxGraphModel></diagram></mxfile>